# xmcd CD database file
#
# Track frame offsets:
#	150
#	16389
#	39592
#	63100
#	81295
#	99503
#	117493
#	134715
#	150700
#	168900
#	184260
#	206602
#	221147
#	240565
#
# Disc length: 3488 seconds
#
# Revision: 2
# Processed by: cddbd v1.4PL0 Copyright (c) Steve Scherf et al.
# Submitted via: CDex 1.40Beta9
#
DISCID=c50d9e0e
DTITLE=Blue Tales - Crying won't help
DYEAR=2003
DGENRE=Blues
TTITLE0=Come on everybody
TTITLE1=Feel the need
TTITLE2=The cowboy
TTITLE3=Blue trailer
TTITLE4=No money, no honey
TTITLE5=Lia or Luca
TTITLE6=Too young
TTITLE7=Still no doubt
TTITLE8=Crying won't help
TTITLE9=Show me
TTITLE10=Shaky ground
TTITLE11=Out of the ashes
TTITLE12=Go West
TTITLE13=The hunter
EXTD=YEAR: 2003 ID3G: 0
EXTT0=
EXTT1=
EXTT2=
EXTT3=
EXTT4=
EXTT5=
EXTT6=
EXTT7=
EXTT8=
EXTT9=
EXTT10=
EXTT11=
EXTT12=
EXTT13=
PLAYORDER=
